<svg width="180" height="80" viewBox="0 0 180 80" fill="none" xmlns="http://www.w3.org/2000/svg">
<path d="M47.3945 48V31.0898H50.9336V48H47.3945ZM53.5 35.0977H56.8047V37.4414H56.875C57.1484 36.6602 57.6172 36.043 58.2812 35.5898C58.9375 35.1367 59.6953 34.9102 60.5547 34.9102C61.4844 34.9102 62.2617 35.1367 62.8867 35.5898C63.5117 36.0508 63.9336 36.7031 64.1523 37.5469H64.2227C64.5195 36.7344 65.0273 36.0938 65.7461 35.625C66.4648 35.1484 67.293 34.9102 68.2305 34.9102C69.4961 34.9102 70.5195 35.3047 71.3008 36.0938C72.0742 36.8906 72.4609 37.9375 72.4609 39.2344V48H69.0391V40.0898C69.0391 38.5273 68.3203 37.7461 66.8828 37.7461C66.2109 37.7461 65.668 37.9727 65.2539 38.4258C64.8398 38.8711 64.6328 39.4609 64.6328 40.1953V48H61.3281V39.9609C61.3281 39.2734 61.1406 38.7305 60.7656 38.332C60.3906 37.9414 59.8711 37.7461 59.207 37.7461C58.5352 37.7461 57.9844 37.9805 57.5547 38.4492C57.1328 38.9102 56.9219 39.5078 56.9219 40.2422V48H53.5V35.0977ZM79.668 45.6562C80.4727 45.6562 81.1445 45.4336 81.6836 44.9883C82.2383 44.5352 82.5156 43.9609 82.5156 43.2656V42.3164L79.8086 42.5039C78.3477 42.5977 77.6172 43.1328 77.6172 44.1094C77.6172 44.5859 77.8047 44.9609 78.1797 45.2344C78.5469 45.5156 79.043 45.6562 79.668 45.6562ZM78.5547 48.1523C77.2969 48.1523 76.2617 47.7969 75.4492 47.0859C74.6211 46.3594 74.207 45.4258 74.207 44.2852C74.207 43.1211 74.6445 42.207 75.5195 41.543C76.3789 40.8945 77.6367 40.5195 79.293 40.418L82.5156 40.2188V39.3633C82.5156 38.7461 82.3164 38.2695 81.918 37.9336C81.5195 37.6055 80.9648 37.4414 80.2539 37.4414C79.6445 37.4414 79.1328 37.5898 78.7188 37.8867C78.3125 38.1758 78.0664 38.5586 77.9805 39.0352H74.8516C74.8984 37.8008 75.4297 36.8008 76.4453 36.0352C77.4688 35.2617 78.7852 34.875 80.3945 34.875C82.0508 34.875 83.3789 35.2656 84.3789 36.0469C85.3789 36.8281 85.8789 37.8633 85.8789 39.1523V48H82.5742V46.0078H82.5039C82.1602 46.6719 81.6211 47.1992 80.8867 47.5898C80.1758 47.9648 79.3984 48.1523 78.5547 48.1523ZM94.1055 45.2695C94.9961 45.2695 95.707 44.9336 96.2383 44.2617C96.7695 43.5898 97.0352 42.6797 97.0352 41.5312C97.0352 40.3672 96.7695 39.4414 96.2383 38.7539C95.707 38.0586 94.9961 37.7109 94.1055 37.7109C93.2227 37.7109 92.5195 38.0547 91.9961 38.7422C91.4727 39.4297 91.2109 40.3555 91.2109 41.5195C91.2109 42.6836 91.4727 43.6016 91.9961 44.2734C92.5117 44.9375 93.2148 45.2695 94.1055 45.2695ZM94.0703 52.7227C92.3672 52.7227 90.9766 52.3789 89.8984 51.6914C88.8047 50.9961 88.2148 50.0703 88.1289 48.9141H91.5039C91.6133 49.3359 91.9141 49.6758 92.4062 49.9336C92.8906 50.1836 93.4727 50.3086 94.1523 50.3086C95.0273 50.3086 95.7227 50.0977 96.2383 49.6758C96.7617 49.2539 97.0234 48.6836 97.0234 47.9648V45.6562H96.9531C96.6406 46.3516 96.1289 46.9023 95.418 47.3086C94.707 47.7148 93.8867 47.918 92.957 47.918C91.3711 47.918 90.1055 47.3477 89.1602 46.207C88.1914 45.043 87.707 43.4766 87.707 41.5078C87.707 39.4844 88.1836 37.8867 89.1367 36.7148C90.0898 35.5352 91.3828 34.9453 93.0156 34.9453C93.9297 34.9453 94.7422 35.1602 95.4531 35.5898C96.1484 36.0039 96.668 36.5742 97.0117 37.3008H97.0703V35.0977H100.445V47.707C100.445 49.2383 99.8672 50.457 98.7109 51.3633C97.5625 52.2695 96.0156 52.7227 94.0703 52.7227ZM108.52 37.4297C107.738 37.4297 107.086 37.6875 106.562 38.2031C106.047 38.7188 105.758 39.3906 105.695 40.2188H111.262C111.23 39.375 110.965 38.6992 110.465 38.1914C109.965 37.6836 109.316 37.4297 108.52 37.4297ZM114.461 44.0625C114.273 45.3125 113.645 46.3164 112.574 47.0742C111.504 47.8398 110.184 48.2227 108.613 48.2227C106.652 48.2227 105.105 47.6328 103.973 46.4531C102.848 45.2734 102.285 43.6562 102.285 41.6016C102.285 39.5469 102.844 37.9141 103.961 36.7031C105.086 35.4844 106.594 34.875 108.484 34.875C110.344 34.875 111.82 35.4531 112.914 36.6094C114.016 37.7656 114.566 39.3242 114.566 41.2852V42.3398H105.66V42.5508C105.66 43.4805 105.938 44.2344 106.492 44.8125C107.047 45.3828 107.773 45.668 108.672 45.668C109.32 45.668 109.879 45.5234 110.348 45.2344C110.824 44.9531 111.145 44.5625 111.309 44.0625H114.461ZM119.43 43.1836C119.508 43.8711 119.875 44.4297 120.531 44.8594C121.18 45.2812 121.977 45.4922 122.922 45.4922C123.859 45.4922 124.625 45.2891 125.219 44.8828C125.805 44.4844 126.098 43.9727 126.098 43.3477C126.098 42.8008 125.879 42.3594 125.441 42.0234C125.004 41.6875 124.273 41.4062 123.25 41.1797L121.047 40.6992C117.945 40.0352 116.395 38.4609 116.395 35.9766C116.395 34.4297 117 33.1758 118.211 32.2148C119.414 31.2695 120.965 30.7969 122.863 30.7969C124.816 30.7969 126.379 31.2617 127.551 32.1914C128.707 33.1133 129.301 34.3438 129.332 35.8828H126.016C125.961 35.1719 125.645 34.6094 125.066 34.1953C124.496 33.7891 123.766 33.5859 122.875 33.5859C122 33.5859 121.297 33.7773 120.766 34.1602C120.227 34.543 119.957 35.0469 119.957 35.6719C119.957 36.1875 120.176 36.6094 120.613 36.9375C121.043 37.25 121.746 37.5195 122.723 37.7461L124.773 38.1797C126.469 38.5391 127.703 39.1016 128.477 39.8672C129.25 40.625 129.637 41.6484 129.637 42.9375C129.637 44.5781 129.02 45.8789 127.785 46.8398C126.551 47.8086 124.883 48.293 122.781 48.293C120.742 48.293 119.121 47.8398 117.918 46.9336C116.707 46.0195 116.074 44.7695 116.02 43.1836H119.43ZM135.906 32.2266V35.0977H138.297V37.6875H135.906V43.957C135.906 44.9414 136.418 45.4336 137.441 45.4336C137.777 45.4336 138.062 45.4141 138.297 45.375V47.9062C137.828 48 137.277 48.0469 136.645 48.0469C135.152 48.0469 134.086 47.7734 133.445 47.2266C132.805 46.6797 132.484 45.7773 132.484 44.5195V37.6875H130.738V35.0977H132.484V32.2266H135.906ZM145.961 48.2227C144 48.2227 142.449 47.6289 141.309 46.4414C140.168 45.2539 139.598 43.6211 139.598 41.543C139.598 39.4883 140.172 37.8594 141.32 36.6562C142.469 35.4688 144.016 34.875 145.961 34.875C147.914 34.875 149.461 35.4688 150.602 36.6562C151.75 37.8516 152.324 39.4805 152.324 41.543C152.324 43.6289 151.754 45.2656 150.613 46.4531C149.48 47.6328 147.93 48.2227 145.961 48.2227ZM145.961 45.5859C146.867 45.5859 147.574 45.2344 148.082 44.5312C148.59 43.8203 148.844 42.8242 148.844 41.543C148.844 40.2773 148.586 39.2852 148.07 38.5664C147.562 37.8555 146.859 37.5 145.961 37.5C145.055 37.5 144.348 37.8555 143.84 38.5664C143.324 39.2852 143.066 40.2773 143.066 41.543C143.066 42.8242 143.324 43.8203 143.84 44.5312C144.348 45.2344 145.055 45.5859 145.961 45.5859ZM162.637 39.8555C162.543 39.168 162.27 38.6211 161.816 38.2148C161.348 37.7852 160.75 37.5703 160.023 37.5703C159.141 37.5703 158.441 37.9219 157.926 38.625C157.41 39.3359 157.152 40.3086 157.152 41.543C157.152 42.793 157.41 43.7695 157.926 44.4727C158.441 45.168 159.145 45.5156 160.035 45.5156C161.543 45.5156 162.414 44.7812 162.648 43.3125H165.836C165.734 44.8125 165.16 46.0039 164.113 46.8867C163.059 47.7773 161.688 48.2227 160 48.2227C158.062 48.2227 156.527 47.6289 155.395 46.4414C154.254 45.2383 153.684 43.6055 153.684 41.543C153.684 39.5039 154.254 37.8828 155.395 36.6797C156.527 35.4766 158.055 34.875 159.977 34.875C161.68 34.875 163.066 35.3477 164.137 36.293C165.176 37.207 165.738 38.3945 165.824 39.8555H162.637ZM175.574 35.0977H179.465L174.496 40.6406L179.699 48H175.762L171.988 42.7031L171.062 43.6992V48H167.641V30.2812H171.062V40.3125H171.109L175.574 35.0977Z" fill="white"/>
<path d="M8.75 33.875V26H19.25V33.875H8.75ZM19.25 38.25H28V54H0V38.25H8.75V46.125H19.25V38.25Z" fill="white"/>
</svg>
